<svg id="Layer_1" data-name="Layer 1" xmlns="http://www.w3.org/2000/svg" viewBox="0 0 400.22 403.17">
    <defs>
        <style>.cls-1{fill:#fefefe;}.cls-2{fill:#d8d8d7;}.cls-3{fill:#ecebea;}</style>
    </defs>
    <title>logo_white_shadow</title>
    <path class="cls-1" d="M1,202.62Q1,103.9.89,5.18c0-3.8,1-4.26,4.43-4.26Q201,1.06,396.7.92c3.45,0,4.42.52,4.41,4.28q-0.2,197.44,0,394.88c0,3.56-.9,4-4.17,4q-195.94-.15-391.88,0c-3.3,0-4.17-.49-4.16-4Q1.11,301.34,1,202.62ZM203,165c1-.17,2.17-0.41,1.42-1.77s-1.7-2.62-3.2-2.82c-1.68-.22-2.07,1.21-2.2,2.6l-2,11,1.15,0.35Zm60.1,56a5,5,0,0,0,2.18-5.93,3.23,3.23,0,0,0-3.16-2c-2.86-.06-3.19,2.43-4.23,4.18-0.33.56-.59,1.17-0.88,1.76l-3.81,4.35C261,226.41,261,226.41,263.1,221ZM226,134c1.36-5-3.06-8.17-3.79-12.64C220.75,124,219,126.12,219,129c-2.45,3.53,1.37,4.39,2.81,6S225,135.94,226,134Zm3,90c1.66,8.6,2.75,8.92,10.58,3-1.08-1.73-3.71-2.35-3.67-4.88-0.12-2.15,1-4.81-2-5.85A4.5,4.5,0,0,0,229,217.8,4.63,4.63,0,0,0,229,224ZM241,195c-2.07.92-6.09,0.14-4.58,4.36,1,2.74,3.43,3.27,6.06,1.79A11.23,11.23,0,0,0,244,200c10.7-3.31,1.84-9.86,2.5-14.88A27.64,27.64,0,0,1,241,195Zm104,10c1.95,0.25,3.73-1.36,5.83-.32a1.24,1.24,0,0,0,1.84-1.46c-1.17-2.91-2.62-6.23-5.27-7.55-2.25-1.12-5.07.6-6.49,3.25-5,4.55-1.5,10.94-3.54,16.28C339.85,211.62,342.07,208,345.08,205ZM219,303.91c-1.56.83-4.79,0.32-4.38,2.65,0.49,2.73,2.19,5.83,4.93,6.87,1.86,0.71,3.76-1.28,4.63-3.39a5.39,5.39,0,0,0,4.46-6.06c-0.26-2.27-2.57-4-4.82-4.38C220.9,299.1,219.71,301.44,219,303.91ZM283,289c4.6-5,3.72-2.77-3.25-15.31L276,285c-1.24.67-2.4,1.5-1.3,3,1.38,1.93,2.65,4.66,4.54,5.28C280.85,293.84,282.69,291.36,283,289ZM138,249c2.08-5.56-2.63-7.74-5.44-10.86-0.56-.62-1.64-1.3-2.09-0.49A14.1,14.1,0,0,0,129,249c-0.87,1.94-2.25,4.42.15,5.63s5.72,2.12,8,1.32C138.61,255.41,139,251.55,138,249ZM193.2,77c1.28-.31,2.58-0.54,3.84-0.94,1.6-.51,4.08.9,4.73-1.57,0.6-2.28-1.1-4-2.42-5.71-2.43-3.23-4.83-2.89-7.37-.28-1.38,1.42-2.68,2.93-4,4.39a36.44,36.44,0,0,0-1.44,16A94.62,94.62,0,0,1,193.2,77ZM143.09,219c0.47-1,1-2,1.42-3,1.49-3.44-.33-5-3.27-6.33-3.31-1.49-4.46.45-5.47,2.9-0.62,1.5-1.16,3-1.73,4.54-1,2.94-3.55,5.88.26,8.74,2.06,1.55,4.66,4.82,6.33,3.66,2.49-1.73,2.25-5.75,2.39-9Q143.06,219.72,143.09,219ZM273,44c-2,1.1-4.62,1.87-4.87,4.54-0.52,5.49.34,11-.46,16.81C269,59.24,273.19,55.23,277,51c2.28-.48,5.4,1.42,6.72-1.42,1.14-2.46.22-5.13-1.59-7.39C279.52,38.94,276.92,39.42,273,44ZM118,342c4.58-6.2-2.85-5.09-4.68-7.1s-3.91-.79-4.28,2.13a13.7,13.7,0,0,0-2,2.1c-4.07,6.64-3.65,7.66,3.82,10.3,1.39,0.49,2.66.78,3.48-.6C115.66,346.61,116.78,344.27,118,342Zm-1-20c-2.2,1.21-3.24,4.33-2.18,5.24a13.19,13.19,0,0,0,8,3.1c1.93,0,2.08-3.22,2.23-5.32,2.83-1.85,2.78-5.16,3.59-7.87,0.71-2.35,3-5.74.68-7.3-2-1.38-4,2.23-5.71,3.69C120.89,315.81,116.58,317.21,117,322ZM96,367a18.8,18.8,0,0,0,8.92-7.42c0.54-.87,1.09-1.5-0.06-2.46-6.23-5.2-12.05-3.82-15.89,3.86-1.91.2-3.42,1.18-2.7,3.14a10.07,10.07,0,0,0,5,5.23C93.18,370.32,94.92,368.84,96,367Zm67-187a14.67,14.67,0,0,0-.73,3.85c0.28,3.53-2.51,7.43-.11,10.42a116.67,116.67,0,0,1,8.1,11.16c0.14-8,2.91-15.57,2.76-23.49,1.07-.85.9-2.06,0.94-3.21,0.15-4.37-2.62-8.31-6.44-8.64-5.07-.43-2.9,4.27-4.22,6.48C162.82,177.51,163.13,178.89,163.05,180Zm-29,98.19c-1.65,2.12-3.81,1.82-5.91,1.86-1.31,0-2.95-.1-3,1.73-0.27,6.29-2.77,12.31-2.42,19.58C129.38,294.75,138.14,290.25,134.1,278.23Z" transform="translate(-0.89 -0.92)"/>
    <path class="cls-2" d="M173.07,182c0.15,7.93-2.62,15.48-2.76,23.49a116.67,116.67,0,0,0-8.1-11.16c-2.39-3,.4-6.89.11-10.42a14.7,14.7,0,0,1,.73-3.85Z" transform="translate(-0.89 -0.92)"/>
    <path class="cls-2" d="M134.1,278.23c4,12-4.71,16.51-11.36,23.17-0.36-7.27,2.15-13.29,2.42-19.58,0.08-1.83,1.72-1.7,3-1.73C130.29,280.05,132.45,280.35,134.1,278.23Z" transform="translate(-0.89 -0.92)"/>
    <path class="cls-2" d="M89,361c3.84-7.68,9.66-9.06,15.89-3.86,1.15,1,.6,1.58.06,2.46A18.8,18.8,0,0,1,96,367C92.49,366.38,91.94,362.28,89,361Z" transform="translate(-0.89 -0.92)"/>
    <path class="cls-2" d="M117,322c-0.4-4.78,3.92-6.18,6.59-8.45,1.71-1.46,3.68-5.07,5.71-3.69,2.29,1.56,0,4.94-.68,7.3-0.81,2.71-.76,6-3.59,7.87C122,324.89,119,324.82,117,322Z" transform="translate(-0.89 -0.92)"/>
    <path class="cls-2" d="M118,342c-1.2,2.29-2.32,4.62-3.64,6.84-0.82,1.38-2.09,1.09-3.48.6-7.47-2.65-7.89-3.66-3.82-10.3a13.72,13.72,0,0,1,2-2.1C112.34,338.09,115.66,339.13,118,342Z" transform="translate(-0.89 -0.92)"/>
    <path class="cls-2" d="M277,51c-3.78,4.27-7.93,8.28-9.29,14.4,0.8-5.78-.06-11.32.46-16.81C268.39,45.88,271,45.12,273,44A7.5,7.5,0,0,1,277,51Z" transform="translate(-0.89 -0.92)"/>
    <path class="cls-3" d="M173.07,182l-10-1.94c0.07-1.16-.23-2.54.29-3.42,1.32-2.22-.85-6.92,4.22-6.48,3.82,0.33,6.59,4.26,6.44,8.64C174,179.93,174.14,181.14,173.07,182Z" transform="translate(-0.89 -0.92)"/>
    <path class="cls-2" d="M143.09,219q0,0.74-.07,1.48c-0.14,3.23.09,7.25-2.39,9-1.68,1.16-4.28-2.11-6.33-3.66-3.81-2.86-1.26-5.8-.26-8.74Z" transform="translate(-0.89 -0.92)"/>
    <path class="cls-3" d="M188,72.94c1.34-1.47,2.64-3,4-4.39,2.53-2.61,4.94-3,7.37.28,1.31,1.75,3,3.43,2.42,5.71-0.65,2.47-3.13,1.06-4.73,1.57-1.25.4-2.55,0.63-3.84,0.94Z" transform="translate(-0.89 -0.92)"/>
    <path class="cls-2" d="M129,249a14.1,14.1,0,0,1,1.46-11.32c0.45-.81,1.54-0.12,2.09.49,2.81,3.11,7.51,5.29,5.44,10.86Z" transform="translate(-0.89 -0.92)"/>
    <path class="cls-2" d="M276,285l3.76-11.3c7,12.54,7.85,10.32,3.25,15.31Z" transform="translate(-0.89 -0.92)"/>
    <path class="cls-3" d="M277,51A7.5,7.5,0,0,0,273,44c3.91-4.59,6.52-5.07,9.08-1.87,1.81,2.26,2.74,4.93,1.59,7.39C282.36,52.38,279.24,50.48,277,51Z" transform="translate(-0.89 -0.92)"/>
    <path class="cls-3" d="M143.09,219L134,217c0.57-1.51,1.11-3,1.73-4.54,1-2.45,2.16-4.39,5.47-2.9,2.94,1.32,4.76,2.89,3.27,6.33C144.06,217,143.57,218,143.09,219Z" transform="translate(-0.89 -0.92)"/>
    <path class="cls-3" d="M219,303.91c0.72-2.46,1.91-4.8,4.83-4.31,2.25,0.38,4.56,2.11,4.82,4.38a5.39,5.39,0,0,1-4.47,6.06C221.89,308.46,219.49,307,219,303.91Z" transform="translate(-0.89 -0.92)"/>
    <path class="cls-3" d="M341,199c1.42-2.65,4.24-4.37,6.49-3.25,2.64,1.32,4.09,4.64,5.27,7.55a1.24,1.24,0,0,1-1.84,1.46c-2.09-1-3.88.58-5.83,0.32Z" transform="translate(-0.89 -0.92)"/>
    <path class="cls-2" d="M241,195a27.64,27.64,0,0,0,5.46-9.93c-0.66,5,8.2,11.57-2.5,14.88C242.73,198.51,241.24,197.16,241,195Z" transform="translate(-0.89 -0.92)"/>
    <path class="cls-2" d="M235.89,222.08c0,2.54,2.59,3.15,3.67,4.88-7.83,6-8.92,5.64-10.58-3C230.85,221.8,233.36,221.92,235.89,222.08Z" transform="translate(-0.89 -0.92)"/>
    <path class="cls-3" d="M129,249l9,0c1,2.54.59,6.41-.85,6.92-2.27.8-5.61-.12-8-1.32S128.16,250.91,129,249Z" transform="translate(-0.89 -0.92)"/>
    <path class="cls-2" d="M341,199l4.1,6.08c-3,3-5.23,6.57-7.63,10.2C339.48,209.9,335.93,203.51,341,199Z" transform="translate(-0.89 -0.92)"/>
    <path class="cls-2" d="M188,72.94L193.19,77A94.93,94.93,0,0,0,186.52,89,36.44,36.44,0,0,1,188,72.94Z" transform="translate(-0.89 -0.92)"/>
    <path class="cls-2" d="M219,129c0-2.88,1.79-5,3.26-7.62,0.73,4.47,5.14,7.62,3.79,12.64C223.09,133.14,221.48,130.43,219,129Z" transform="translate(-0.89 -0.92)"/>
    <path class="cls-2" d="M219,303.91c0.49,3.08,2.9,4.56,5.18,6.13-0.87,2.11-2.76,4.09-4.62,3.39-2.74-1-4.45-4.14-4.93-6.87C214.2,304.23,217.43,304.74,219,303.91Z" transform="translate(-0.89 -0.92)"/>
    <path class="cls-3" d="M117,322c2,2.83,5,2.9,8,3-0.15,2.1-.3,5.31-2.23,5.32a13.19,13.19,0,0,1-8-3.1C113.74,326.32,114.77,323.2,117,322Z" transform="translate(-0.89 -0.92)"/>
    <path class="cls-3" d="M257,219c0.29-.59.55-1.2,0.88-1.76,1-1.76,1.37-4.25,4.23-4.18a3.23,3.23,0,0,1,3.16,2,5,5,0,0,1-2.19,5.93C260.77,221.26,259,219.85,257,219Z" transform="translate(-0.89 -0.92)"/>
    <path class="cls-3" d="M235.89,222.08c-2.53-.16-5-0.28-6.91,1.92a4.63,4.63,0,0,1,.06-6.2,4.5,4.5,0,0,1,4.86-1.57C236.92,217.28,235.77,219.94,235.89,222.08Z" transform="translate(-0.89 -0.92)"/>
    <path class="cls-3" d="M89,361c3,1.29,3.52,5.38,7,6-1.09,1.83-2.83,3.31-4.75,2.35a10.07,10.07,0,0,1-5-5.23C85.55,362.18,87.07,361.2,89,361Z" transform="translate(-0.89 -0.92)"/>
    <path class="cls-2" d="M257,219c2,0.84,3.75,2.24,6.08,2-2.07,5.41-2.07,5.41-9.89,2.36Z" transform="translate(-0.89 -0.92)"/>
    <path class="cls-3" d="M276,285l7,4c-0.31,2.35-2.16,4.83-3.77,4.3-1.89-.62-3.16-3.35-4.54-5.28C273.59,286.5,274.75,285.67,276,285Z" transform="translate(-0.89 -0.92)"/>
    <path class="cls-3" d="M241,195c0.2,2.12,1.69,3.47,3,5a11.24,11.24,0,0,1-1.49,1.2c-2.62,1.48-5.08.95-6.06-1.79C234.94,195.18,239,196,241,195Z" transform="translate(-0.89 -0.92)"/>
    <path class="cls-3" d="M118,342c-2.32-2.86-5.64-3.9-9-5,0.37-2.92,2.51-4.07,4.28-2.13S122.56,335.78,118,342Z" transform="translate(-0.89 -0.92)"/>
    <path class="cls-2" d="M203,165l-4.79,9.37L197,174l2-11C200.74,162.87,201.6,164.47,203,165Z" transform="translate(-0.89 -0.92)"/>
    <path class="cls-3" d="M219,129c2.52,1.43,4.14,4.14,7.05,5-1.05,1.92-2.69,2.79-4.25,1S216.51,132.54,219,129Z" transform="translate(-0.89 -0.92)"/>
    <path class="cls-3" d="M203,165c-1.39-.53-2.25-2.13-4-2,0.13-1.39.52-2.83,2.2-2.6,1.5,0.2,2.5,1.56,3.2,2.82S204,164.83,203,165Z" transform="translate(-0.89 -0.92)"/></svg>