<svg id="Layer_1" data-name="Layer 1" xmlns="http://www.w3.org/2000/svg" viewBox="0 0 539.59 537.67"><defs><style>.cls-1{fill:#fefcfc;}.cls-2{fill:#fefbfc;}.cls-3{fill:#fefafb;}.cls-4{fill:#cfcccd;}.cls-5{fill:#e3e0e0;}.cls-6{fill:#f3f1f1;}.cls-7{fill:#d5d1d2;}.cls-8{fill:#e9e6e6;}.cls-9{fill:#eeebeb;}.cls-10{fill:#dedcdc;}</style></defs><title>lunch-app-pink-logo</title><path class="cls-1" d="M62.65,318C62,300.2,68.14,284.39,78,270.12a73.47,73.47,0,0,1,32.44-26.61c5.95-2.51,11.88-5.1,18.1-6.17,18-3.1,35.29-1.49,50.29,10.44a49.5,49.5,0,0,1,9.93,11.4,45.29,45.29,0,0,1,6.84,14.4c1.44,5.77,2.25,11.52,1.14,17.68-1.16,6.46-2.74,12.6-6.1,18.2-1.76,2.93-3,6.31-5.81,8.46-3.58,2.73-8.55,4.34-12.12-.29-1.86-2.41-1.66-6.27,1.33-9.83a52,52,0,0,0,6.13-9.79,22,22,0,0,0,2.56-10.77c-0.41-9.33-3.16-17.75-10.24-24.74S156.61,252,147.26,251c-7.29-.74-14.83.55-22.14,2.64-9.73,2.78-18.15,7.9-25.66,14.23A56.68,56.68,0,0,0,82,294.7c-1.33,4.22-2.42,8.52-3.72,12.75-0.45,1.46.12,2.83,0,4.3A67.59,67.59,0,0,0,83.52,345c6.76,15.66,18,26.86,33.26,34,5.61,2.64,11.69,4.06,17.73,5.59a59.45,59.45,0,0,0,17.74,1.28,73,73,0,0,0,30.36-8,110.21,110.21,0,0,0,19.52-12.65,86.49,86.49,0,0,0,14.42-15.91,75.52,75.52,0,0,0,11.22-22.77,89.07,89.07,0,0,0,3.1-15.53c0.63-5.39.95-10.92,0.07-15.9-1.34-7.63-2.78-15.4-6-22.72a173.59,173.59,0,0,0-10.37-19.11c-2.9-4.83-6.47-9.36-9.66-14.08a207.38,207.38,0,0,1-11.39-18.54A90.52,90.52,0,0,1,185.4,201a48.5,48.5,0,0,1,2.47-32.47,54.54,54.54,0,0,1,15.64-20.34c5.87-4.84,12.55-8.43,20.43-9.06,1.1-.09,2.15-0.81,3.26-0.94,11.88-1.32,22.63,1.56,31.36,9.79,5.11,4.82,7.74,11.11,8.78,18.33,1.64,11.41-2.77,20.3-10.14,28.2-3.49,3.75-8.14,5.69-13.12,6.59-3.25.59-7.16-2-7.87-4.8-0.85-3.38,1.46-7.35,4.79-8.72,12.26-5,14.93-18.19,7.41-28.29-5.28-7.1-16.58-8.42-25.7-5.22-8.14,2.85-13.54,9-18.49,15.67-4.16,5.63-5.56,12.28-5.45,18.8a46.81,46.81,0,0,0,4.71,18.8A174.7,174.7,0,0,0,213,224.5c2.42,4,5.3,7.68,7.91,11.55,3,4.47,5.74,9.14,8.93,13.47,2.8,3.79,4.56,8.11,6.79,12.16,2.41,4.4,3.75,9.41,5.34,14.23,1.13,3.41,1.89,6.93,2.82,10.41a37.47,37.47,0,0,1,1.18,7.68c0.29,5.17,1.43,10.31.71,15.51-0.91,6.48-1.34,13-3.38,19.35A103.74,103.74,0,0,1,235,348.66a96.8,96.8,0,0,1-24,28.59,107.14,107.14,0,0,1-18.66,12.33,103.76,103.76,0,0,1-22.32,8.5,101.05,101.05,0,0,1-13.4,2.34,89.11,89.11,0,0,1-14.11.55,87,87,0,0,1-32.55-8,66.24,66.24,0,0,1-15.19-9.72c-2.51-2.2-5.09-4.31-7.53-6.59-5.82-5.44-10-12.06-13.9-19a75,75,0,0,1-8-19.11c-0.82-3.42-1.34-6.87-2-10.32A83.75,83.75,0,0,1,62.65,318Z" transform="translate(-36.21 -137.87)"/><path class="cls-1" d="M260.37,411.91c-0.42,2.41,1.06,4.45,1.33,6.7,0.8,6.6,2.91,13.05,2.51,19.77-0.56,9.22-.84,18.42-3.5,27.47-1.25,4.25-1.7,8.85-3.27,13.1-1.89,5.11-3.89,10.18-5.82,15.27-3.94,10.43-9.75,19.92-15.72,29.21a147,147,0,0,1-14.37,18.95c-3.63,4-7.28,8-11.08,11.87-1.5,1.52-3.26,2.7-4.62,4.46-1.6,2.06-2.82,4.08-2.81,6.71-1.27-.23.48-4.42-2.46-2.13-5.24,4.07-10.57,8.06-15.28,12.77-1.82.29-1.48,2.13-2.26,3.17-2.56-1.94-5-.26-6.93.83a105.3,105.3,0,0,1-23.85,9.28c-5.63,1.54-11,3.79-17.11,3.93-5.5.13-11.06,2-16.62,1.59-9.6-.7-19.14-1.6-28.49-4.5A89.88,89.88,0,0,1,62,575.48c-7.58-5.78-12.9-13.33-17.28-21.49a78,78,0,0,1-7.36-21.83c-1.44-7.19-1.2-14.36-.75-21.45A67.56,67.56,0,0,1,41.9,489c2.36-5.64,4.56-11.4,8.23-16.32,2.6-3.47,4.52-7.41,7.84-10.43,4.67-4.25,8.47-9.41,13.46-13.36a136.35,136.35,0,0,1,29.06-17.12c6.89-3.1,14.16-4.42,21.3-6.27,3.58-.93,7.59-0.86,11.41-1.2a113.44,113.44,0,0,1,11.55-.59c3.65,0,7.49.44,11.2,0.59,4.82,0.2,9.41,1.53,14.15,2.08s9.56,2.32,14.33,3.57c7.45,2,14.14,5.74,21.11,8.85,4.48,3,8.35,6.82,13,9.53,2.69,4.56,7.33,7.27,10.66,11.23a8.23,8.23,0,0,1,0,10.81c-2.7,3-6.33,3.27-10,.44-1.25-1-2.31-1.35-3.66-.45-3.23-5.25-8.14-8.94-12.32-13.31a18.33,18.33,0,0,0-7.84-6.52c-8.27-3.39-16.31-7.31-25.12-9.5a146.2,146.2,0,0,0-17-3.13c-8.4-1.06-16.87.21-25.23,1.1a58.42,58.42,0,0,0-12.38,2.4,115.24,115.24,0,0,0-20.64,9.18c-2.34,1.34-4.5,3.17-6.82,4.28C81.83,458,77.15,463.07,72.38,468a92.68,92.68,0,0,0-8.85,10.8A68.25,68.25,0,0,0,51,513.21c-0.19,2.22.11,4.55-.18,6.67a32.18,32.18,0,0,0,.43,11,61.21,61.21,0,0,0,10.2,23.44c5.29,7.27,12,12.42,19.54,16.74,10.56,6.1,22.4,8.12,34.34,9.18,4.27,0.38,8.65-.69,13-0.73,8.19-.08,15.8-2.72,23.51-5a97.61,97.61,0,0,0,20.69-8.9c3.74-2.12,7.42-4.52,11-6.95,3.06-2.07,6.21-4.33,8.22-7.66,6-5.47,11.64-11.24,17.11-17.2,1.81,0.48,2.78-.83,3.61-2,4.23-5.73,8.59-11.39,12.46-17.35s7.47-12.17,10.74-18.5c2-3.91,3.4-8.17,5.21-12.23,2.75-6.18,4.18-12.82,6.06-19.31,1.2-4.15,1.35-8.47,2.6-12.61,0.91-3,.63-6.34.89-9.46,0.33-3.93-.64-8.06-0.65-12.13a11.42,11.42,0,0,0-.27-2.78,93.5,93.5,0,0,0-4.54-14c-2.65-6.13-6.68-6.83-11.7-2.76-4,3.27-5.9,7.84-7.88,12.38-2.79-4.23-7.75-4.73-11.76-6.86,3.05-6.54,6.23-13.15,12.25-17.41,4.24-3,8.62-6.35,14.53-5.65,2.62,0.31,4.82,1.71,7.36,2.12a7.84,7.84,0,0,1,3.08,2.05C255,401.52,257.62,406.75,260.37,411.91Z" transform="translate(-36.21 -137.87)"/><path class="cls-1" d="M178.82,622.08c1.66,2.73,4.71,3.57,7.29,4.49,9.91,3.54,19,8.73,28.65,12.9,7.47,3.24,15.16,6,22.8,8.83,5.9,2.18,11.77,4.6,17.86,6.05,6.88,1.64,13.61,3.8,20.7,4.86a181.43,181.43,0,0,0,31.42,1.67,83.15,83.15,0,0,0,23.38-4.15c3.42-1.09,6.83-2.26,10.27-3.3,6.4-1.94,11.5-6,16.69-10a49.41,49.41,0,0,0,14.32-18.29c5.38-11.17,4.71-22.25-1.63-32.85-1.94-3.24-5.79-4.27-8.82-6.23-1.49-1-2.89-2-4.29-3.07a5.17,5.17,0,0,1-1.56-6.16,6.11,6.11,0,0,1,5.84-4.3c4.27,0,7.93,1.68,11.32,3.83A31.27,31.27,0,0,1,385,589.25c2.07,4.35,4,8.86,4.27,13.76,0.08,1.7.62,3.27,0.68,5,0.36,10.57-2.73,19.93-7.93,29a78.74,78.74,0,0,1-10.14,13.52c-3,3.3-6.78,5.76-10.4,8.37-8.49,6.14-18.26,9.47-28.11,12.38a116.77,116.77,0,0,1-12.72,2.48,115.18,115.18,0,0,1-18.84,1.75c-6.18.07-12.31-.18-18.48-0.59-4.2-.28-8.27-1.23-12.45-1.58-4.85-.41-9.62-2-14.39-3.29-13.82-3.62-27-8.87-40.06-14.71-9.35-4.2-18.64-8.54-28.07-12.56-6.87-2.92-13.36-6.66-20.43-9.12-5.49-3-11.42-4.8-17.35-6.63-3.23-3.37-8-3-11.87-4.89-4.36-2.16-9.32-2.51-14-3.81-3.26-.91-6.65-1.93-10-1.92-5.24,0-10.41-.65-15.72-0.35a67.45,67.45,0,0,0-29.9,9.13c-5.25,3-9.55,7.1-11.55,13.05-1.3,3.87-1.73,8,1.08,11.27a25,25,0,0,0,14.3,8.78c6.12,1.21,12.31,1,18.39.53a71.63,71.63,0,0,0,18-4c4.43-1.57,9-2.58,13.15-5.31,3.52-2.34,7.82-3.54,11.36-6.05,2.14,4.12,5.37,7.38,8.44,10.77-3.8,4.26-9.29,5.74-14.12,8.17a119.71,119.71,0,0,1-21.49,8.51c-2.19.62-4.45,0.94-6.63,1.41a79.5,79.5,0,0,1-23.65,1c-7.76-.68-15.61-2.12-22.13-7A34.58,34.58,0,0,1,46,657a24.88,24.88,0,0,1-3.81-14.1c0-7.15,2.93-13,7.09-18.45a50.85,50.85,0,0,1,12.33-11.26c7-4.63,15-6.94,23-9.51,9.53-3.09,19.26-1.84,28.88-1.71,6.65,0.09,13.15,2.19,19.65,3.88,9.21,2.39,18,5.91,26.89,9.16,1.22,0.45,2.69.23,4,.32,1.23-.1,2.12.69,3.13,1.18C171,618.36,174.56,621,178.82,622.08Z" transform="translate(-36.21 -137.87)"/><path class="cls-2" d="M503.67,427a10,10,0,0,1-.63,3.59,124.94,124.94,0,0,0-2.19,12.75q-1.31,11.21-2.7,22.42c-0.68,5.55-1.33,11.12-2.21,16.63a150.37,150.37,0,0,1-3.46,17.82c-2,7.16-5.1,13.57-10.11,18.94-4,4.28-8.36,8.19-14.67,8.93-3.09.36-5.75,2.23-8.8,3-10.27,2.49-20.26,3.41-29.24-3.81a2.84,2.84,0,0,0-1.21-.22c-3-5.62-7.07-10.73-8.72-17.05a17.31,17.31,0,0,0,.63-5.57c0-10.32,1.88-20.38,3.59-30.51a163.9,163.9,0,0,0,2.34-16.93c0.75-11.77,4.06-22.78,12.51-31.57a25.06,25.06,0,0,1,10-6.35c4.38-1.55,8.66-2.81,13.19-2.33a17.5,17.5,0,0,1,15.78,18,61.35,61.35,0,0,0,.6,8.7c0.58,5.74-2.92,11.57-8.42,13.14-2.38.68-4.48,0.15-5.8-2.11a12.71,12.71,0,0,1-1.34-9.27,22.83,22.83,0,0,0,0-9.68c-1.12-4.7-5.94-5.7-10.62-3.09-7.22,4-8.88,11-10.51,18.12-1.73,7.56-1.63,15.42-3.71,22.95-0.71,2.57-.49,5.34-0.85,8a108.63,108.63,0,0,0-1.48,13.31c0,2.7-.67,5.56-0.48,8.3,0.26,3.77.88,7.68,3.36,10.69s5.93,3.87,10.13,4c5.2,0.18,9.41-2,13.88-3.61s7.39-5.32,9.87-9c3.53-5.19,7.34-10.4,8.55-16.84a72.18,72.18,0,0,0,1.34-7.13c0.58-6.69,1.25-13.41,2.27-20,1.72-11,2.51-22.2,4.58-33.2,1.12-5.94,1.09-12.1,2.14-18.06,1.54-8.76,2.21-17.62,3.57-26.4,0.92-5.92,1.47-12,2.29-17.89,0.87-6.32,1.55-12.68,2.49-19,0.54-3.58,1.14-6.62,4-9.11a6,6,0,0,1,9.83,2.43c1.41,3.67-.17,7.08-0.34,10.59a108.4,108.4,0,0,1-1.59,11.6c-1.23,7.72-2,15.48-3.58,23.17-1.25,6-3.24,12.1-2.15,18.45-0.34,3.3-.8,6.6-1,9.91C504.49,418.16,503.13,422.5,503.67,427Z" transform="translate(-36.21 -137.87)"/><path class="cls-1" d="M252.77,360.86c1.43-2.51,1.51-5.55,1.62-8.09,0.36-8.71,2.76-17.1,3.23-25.79,0.4-7.25,2.31-14.37,2.95-21.68,0.58-6.75,2.09-13.43,2.82-20.2,0.78-7.16,1.66-14.32,2.89-21.41,0.87-5,1-10.1,2.06-15,1.18-5.44,1.15-11,2.6-16.4,0.77-2.86-.35-6,0.94-8.94,0.61-1.41,1.23-2.82,1.9-4.2,0.83-1.71,2.39-3.08,4-2.81,2.14,0.36,5.43-.54,5.86,3.2a1.45,1.45,0,0,0,1.87,1.5c-0.53,6.86-1.08,13.72-1.59,20.58-0.12,1.58-1,3.32.7,4.64-0.32.86-.68,1.71-0.94,2.6-1.59,5.46-2,11.17-2.75,16.74-0.89,6.24-1.71,12.54-2.19,18.86a72.3,72.3,0,0,1-1,8.89A83,83,0,0,0,276,312.83c0.11,3.26,2.59,5.4,5.86,5.78,7,0.83,13.76-4.22,16.3-9.34,4.24-8.55,5.65-17.79,6.86-27.07,0.74-5.63,1.5-11.27,2.18-16.91,0.84-7,1.87-14.05,2.84-21.08,0.44-3.19.38-6.46,1.09-9.55,0.92-4-1-8.7-4.78-10.35a8.68,8.68,0,0,0-2.48-6.75c-2-2.3-4.61-4.3-5.07-7.66,7.44-3.44,17.21-.21,22.15,6.35,3.39,4.5,4.19,9.1,4.68,14.5,0.48,5.22-.83,10.11-0.79,15.16,0.06,6.61-1.56,12.9-3.24,19.21a12.2,12.2,0,0,0-.11,2.82,111.83,111.83,0,0,1-2.52,19.29c-0.83,4.2-1.22,8.51-2.29,12.71-2.2,8.65-4.55,17.43-11.06,23.79-7.48,7.31-16.71,11-27.48,9.28a19.47,19.47,0,0,1-2-.81c-2.67-.75-3.43.06-4.08,2.73-1.95,8-1.29,16.44-3.68,24.42-0.67,2.22-.21,4.77-0.31,7.17,0,1,0,2.17-1.36,2.52-3-3.91-7.37-6-11.46-8.38C254.41,360.2,253.58,360.81,252.77,360.86Z" transform="translate(-36.21 -137.87)"/><path class="cls-1" d="M402.16,210c-1.21,5.56-1.41,11.29-2.36,16.85-0.86,5-.81,10.17-2.48,15.19-1.38,4.15-.66,9-1.23,13.43-0.7,5.49-2,10.94-2.63,16.41A54.1,54.1,0,0,1,388.3,289c-2.81,5.84-6.27,11.49-11.6,15.23-5.72,4-12.06,7.13-19.51,6.52-4-.33-8-1-11.38-3.3a3.89,3.89,0,0,0-2.37-.6c-4.26-5.13-5.3-11.64-7.54-17.63,0.72-7.75,1-15.58,2.26-23.23,1.46-8.76,2.13-17.6,3.64-26.34,1-5.55,1.31-11.18,2.1-16.72,1-7.14,1.6-14.35,2.9-21.44a7.18,7.18,0,0,1,5.53-6.13,7.5,7.5,0,0,1,8.05,2.55,4.11,4.11,0,0,1,1.22,2.81c-0.84,7.49-.73,15.11-3.06,22.39a10.17,10.17,0,0,0-.2,2.49,123.39,123.39,0,0,1-2.71,19.91,89.55,89.55,0,0,0-1.07,9.86c-0.64,6.17-1.78,12.23-2.75,18.34-0.83,5.22-1.21,10.83.16,15.94,1.8,6.67,5.5,7.09,11.27,5.06,6.33-2.23,9.71-7.44,11.52-13.52,2.23-7.48,3.81-15.14,5.92-22.65,1.33-4.73.82-9.66,1.91-14.36,1.34-5.78,1.37-11.73,2.67-17.52,0.69-3.08.69-6.36,1-9.56,0.74-6.6,1.57-13.16,2.85-19.69,0.73-3.71,0-7.61,1.87-11.26,2.42-4.7,7.14-7,11.45-2.39,0,1.15.06,2.29,0,3.44Q402.36,198.59,402.16,210Z" transform="translate(-36.21 -137.87)"/><path class="cls-2" d="M333.38,569.67c-8.62,4.18-17.27,5.93-25.87,0-1.31-.9-1.88-0.35-2.46.66-2.57,4.47-5.61,8.57-10.27,11-4.81,2.52-9.71,4.7-15.49,4.19-2.61-.23-5.14-0.16-7.73-1C263.77,582,261,576,259.31,568.74c-1.66-7.06.41-13.73,1-20.59,0.52-6.53,1.5-13,2.33-19.47,0.67-5.19.81-10.48,2.38-15.61,0.81-2.65.83-5.69,1-8.5,0.46-6.83,2.22-13.5,2.21-20.38a13.92,13.92,0,0,1,2.15-7c1.25-2.11,3.3-3.66,6-3.07,4.28,0.94,6.33,3,6.4,6.51,0.11,5.09-1.1,10.05-1.67,15.07-0.49,4.33-1,8.66-1.74,12.95-0.91,5.13-.93,10.37-2.3,15.46-0.72,2.67-.66,5.57-0.88,8.32-0.52,6.53-1.59,13-2.36,19.47-0.47,3.94-.7,7.84-0.85,11.79-0.29,7.55,7.82,9.69,12.79,7.09,7.11-3.72,10.33-10.19,12.53-17.5,2.28-7.54,2.81-15.32,4-23,1-6.52,1-13.15,2.65-19.6,0.73-2.88.38-6,.86-9,1.11-7,1.12-14.09,2.36-21,0.8-4.5.38-9.1,1.74-13.52,0.9-2.93,4.17-6.13,6.57-5.91,4.05,0.36,6.94,3.11,6.93,7.09a128.22,128.22,0,0,1-2.46,23.28c-1,5.45-1.54,11-2.26,16.5-0.57,4.3-.78,8.64-1.75,12.89-0.66,2.93-.58,6-0.89,8.95-0.41,4-1.7,7.94-1.35,12,0.24,2.83-1.2,5.44-1,8.34a15,15,0,0,0,1.58,5.65c1.79,3.53,3.92,3.92,9.19,2.16,1.64,2.52,3.27,5,4.91,7.56C330.39,567.26,331.25,569.11,333.38,569.67Z" transform="translate(-36.21 -137.87)"/><path class="cls-1" d="M391.22,442.08c1.95,2.65,4.62,4.6,6.72,7.15,2.57,3.12,3.42,6.78,3.79,10.36a55.19,55.19,0,0,1-.41,13.67c-0.66,4.53-1.18,9.16-1.79,13.71-0.64,4.75-.84,9.61-2.23,14.27-0.8,2.68-.51,5.54-0.88,8.3-0.82,6.13-2,12.33-1.31,18.6,0.33,3.16,4.34,5.73,7.46,5.19a21.45,21.45,0,0,0,7.53-2.68c1.74,1.26,3.69,2.23,5.12,3.93,1.58,1.89,2.83,4.08,4.94,5.5a28,28,0,0,1-18.24,7.52c-6,.31-11.21-0.69-15.05-5.31-2.83-3.41-5.27-7.26-5.22-12,0-2.19-1.37-4.06-1-6.4,0.72-5.16,1.09-10.38,1.61-15.57,0.69-6.92,1.83-13.77,2.51-20.7,0.7-7.18,2.49-14.26,2.8-21.51a37.24,37.24,0,0,0-.13-5.64c-0.41-3.79-5.6-6.5-9.26-5.4-9.64,2.9-13,10.81-15.94,19.19s-3,17.09-3.28,25.78c-0.12,3.66-1.59,7-2,10.68-0.47,4.27-.73,8.6-1.51,12.85-1.74,9.46-2.45,19.16-6.5,28.08a11.6,11.6,0,0,1-2.31,3.69c-1.52.08-2.44-.93-3.46-1.85-2.39-2.15-4.85-4.23-7.28-6.34,1.16-4.28,2.92-8.39,3.44-12.87,0.31-2.7,1-5.37,1.38-8.08,1.51-9.68,2.37-19.45,3.84-29.14,0.6-3.94.9-8,1.41-12,1-8.18,1.66-16.41,3.4-24.53,0.74-3.45.26-7.14,2.58-10.2,2.2-3.83,6.12-5.18,9.84-6.82,6.77,1.23,12.72-.87,18.27-4.55A16.93,16.93,0,0,1,391.22,442.08Z" transform="translate(-36.21 -137.87)"/><path class="cls-2" d="M419,172.76c5.3-1,10.39-.32,14.86,2.75a23.25,23.25,0,0,1,9.85,13.69,35.48,35.48,0,0,1,.82,13.3c-0.7,5.59-.91,11.27-2.56,16.76-0.92,3-.53,6.36-1,9.57-1.16,8.17-2.17,16.36-3.77,24.45-0.86,4.34.42,8.48,0.71,12.71,0.1,1.41,1.31,2.11,2.48,2.59,4.85,2,12.57-.21,15.51-4.6,3.85-5.74,5.89-12.23,7.16-19,0.38-2,.88-4,1.26-6.07,0.51-2.73,5.36-5.89,7.84-5.55,3.4,0.46,6.22,4,6.5,7.61,0.26,3.37-1.09,6.3-2.06,9.32-1.13,3.51-2.08,7.06-3.46,10.52a55.35,55.35,0,0,1-11.29,17.22c-5.53,6-20.51,8.55-27.95,4.95-6.29-3-9.07-8.46-10.67-15a44.44,44.44,0,0,1-.72-15.23c0.55-5.38.88-10.86,2.47-16.14,0.89-2.94.64-6.15,1.07-9.23,1-6.83,2.06-13.64,2.92-20.48a47.66,47.66,0,0,0-.68-15.64c-0.33-1.59-1.6-1.76-2.52-2.51,0.39-3.5.16-6.67-2.5-9.55A17.29,17.29,0,0,1,419,172.76Z" transform="translate(-36.21 -137.87)"/><path class="cls-2" d="M517.15,397.06c5.12-2.3,14.23-.49,18.39,3.69s6.23,9.28,7,15.27c1,7.29-.66,14.29-1.19,21.39a142.61,142.61,0,0,1-2,15c-0.91,4.94-1.5,10-2.22,14.89-0.89,6.13-3.16,12.54.11,18.87,1.06,2.06,2.33,3.07,4.42,3.19,6.24,0.36,10.88-2.29,13.83-7.75,2.87-5.3,5.4-10.69,5.56-17a14,14,0,0,1,1.95-5.81,6.94,6.94,0,0,1,8.72-3.4c2.3,0.84,4.4,5,3.92,8-1.63,10-4.61,19.72-10.35,28-6.09,8.82-15,13.41-26.07,12.26-10.66-1.11-17-11.06-17.14-19.77-0.15-7.31-.2-14.66,1.12-21.84,0.89-4.84.86-9.82,2.58-14.57,1-2.64.51-5.7,0.91-8.59,0.79-5.73,1.79-11.46,2.26-17.25a11.14,11.14,0,0,0-3.78-9.76,5.64,5.64,0,0,0-1.24-3.74C521.73,404.48,518.74,401.2,517.15,397.06Z" transform="translate(-36.21 -137.87)"/><path class="cls-3" d="M391.14,423.13c1.37-5.1,3.79-9.88,4.37-15.23,0.34-3.18,1.09-6.31,1.55-9.48,0.23-1.57-.08-2.22-2-1.51a38.08,38.08,0,0,1-10.2,2.28c-3.25.24-5.6-2.28-8.69-2.05-0.46-2.33-2.33-3.85-3.35-5.88-1.86-3.73-1.28-7.64-1.17-11.53,0.17-7.37,1.7-14.61,2.44-21.92,0.64-6.32,1.17-12.72,2.44-19a97.13,97.13,0,0,0,1.18-12.1c0.34-4.82,4.49-7.41,8.14-5.08a3.11,3.11,0,0,1,1.59,2.53c0.46,5.77-.77,11.43-1.38,17.09-0.4,3.75-.85,7.56-1.45,11.33-0.76,4.77-1.33,9.61-1.82,14.42-0.61,5.94-1.49,11.92-1.1,17.93,0.19,2.91,3.37,4.81,6.38,4.21,5.33-1.05,8.21-4.95,9.88-9.43,1.87-5,2.29-10.44,3.18-15.74,1.13-6.74,1.46-13.57,2.54-20.31A87.9,87.9,0,0,0,405,331.93a129.73,129.73,0,0,1,2-16.59c0.39-2.5,3.34-4.07,6.14-3.54,2.59,0.48,3.66,2.27,3.39,4.8-0.77,7.21-1.33,14.45-2.61,21.61a86,86,0,0,0-1,9.6c-0.43,6.75-1.91,13.34-2.35,20.09a145.55,145.55,0,0,1-1.75,16.67c-1.6,8.76-1.8,17.71-3.91,26.35-1.32,5.4-1.81,11.1-4.82,16C396.73,426.41,394.38,423.73,391.14,423.13Z" transform="translate(-36.21 -137.87)"/><path class="cls-3" d="M360.37,407.7c-8.17,2.54-14.68-5-15.74-11.45-1.53-9.25,1.17-18,1.82-27,0.25-3.53,1.48-6.89,1.26-10.45-0.17-2.71,1.06-5.24,1-8-0.08-3.27-.47-6.49-3.63-7.69s-6,.89-8,3.16c-3.43,3.92-6.18,8.36-6.87,13.69-1,8.1-2.24,16.18-3.13,24.32-1,8.85-1.67,17.76-3.57,26.51-0.59,2.72-.25,5.53-2.5,7.77-1.76,1.76-3.71,2.62-5.9,1.57-2.43-1.17-2.85-3.59-2.23-6,1.14-4.36.91-8.89,1.83-13.24,1.4-6.6,1.64-13.33,2.65-20s2.1-13.29,2.6-20a11.14,11.14,0,0,0-.92-5.76c-1.59-3.13-4.37-2.71-7.1-2.47l-6.31-6.94c6.15-5,12.61-5.33,18.39-.82,1.26,1,1.69.79,2.57-.55,2.68-4.11,5.55-8.06,10.5-9.84,7.83-2.81,14.53-1.84,19.27,5,2.1,3,2.44,6.54,2.28,9.81a237.17,237.17,0,0,1-2.39,24A135.49,135.49,0,0,0,354.4,392a9.25,9.25,0,0,0,1.69,5.82c-0.3,1.84.74,3.18,1.63,4.6C358.76,404.12,360.31,405.54,360.37,407.7Z" transform="translate(-36.21 -137.87)"/><path class="cls-3" d="M300.85,367.44c-0.84,4.89-.66,9.87-1.34,14.79-0.45,3.25-1.19,6.49-1.35,9.81-0.47,9.63-1.32,19.3-5,28.26-2.76,6.67-7.37,12.12-14.76,14.38a2.27,2.27,0,0,1-1.82,0c-2.58-1.39-2.44-4.25-3.18-6.5-0.44-1.34,1.25-2.48,2.66-3,6.51-2.59,8.31-8.39,9.51-14.38a155.87,155.87,0,0,0,2.84-18.66c0.28-3.63.87-7.22,1.22-10.82,0.68-7,1.11-14,2.7-20.91,0.58-2.51-.16-5.09.82-7.71,1.95-5.18,4.12-6.09,8.73-2.95l0,3.46A76.64,76.64,0,0,0,300.85,367.44Z" transform="translate(-36.21 -137.87)"/><path class="cls-3" d="M348.61,165.74c-1.32-6.7,5.89-13.76,12.77-13.16,5.18,0.45,9.67,5.4,9.56,11.7-0.13,7.72-5.47,12.47-13.21,12.66C352,177.08,348.6,172.83,348.61,165.74Z" transform="translate(-36.21 -137.87)"/><path class="cls-3" d="M434.94,363.53c-1.5,8.7-4.43,17.83-12.66,24.27a16.36,16.36,0,0,1-3.91,1.89c-2.84,1.17-5.15.24-6.4-2.51a4.67,4.67,0,0,1,2.19-6.37c6.81-2.72,9.08-8.33,10.18-14.86,0.27-1.63.76-3.2,1-4.85a5.35,5.35,0,0,1,5.67-4.71C433.78,356.65,434.94,358.46,434.94,363.53Z" transform="translate(-36.21 -137.87)"/><path class="cls-3" d="M339.27,312.5c-3.63,4.75-8.71,7.38-14.1,9.49-1.83.72-6.67-1.84-7.5-3.74-1.82-4.17-1.33-6.55,1.49-8.74,3.34-2.59,7.71-3.68,10.42-7.17,0,1.94,1.26,3.12,2.66,4A31.94,31.94,0,0,1,339.27,312.5Z" transform="translate(-36.21 -137.87)"/><path class="cls-4" d="M260.37,411.91c-2.75-5.16-5.39-10.39-9.6-14.61a7.84,7.84,0,0,0-3.08-2.05c1.2-3,.34-6.44,1.88-9.38,0.41,1.41,1.51,1.83,2.82,2,3.77,0.61,7.52,1.43,11.38,1.26C262.83,396.78,262,404.41,260.37,411.91Z" transform="translate(-36.21 -137.87)"/><path class="cls-5" d="M252.77,360.86c0.82-.05,1.65-0.66,2.44-0.19,4.09,2.42,8.46,4.47,11.46,8.38l-1.42,9.4a14.66,14.66,0,0,1-3.13,0c-3.8-.83-8-0.32-11.22-3.16C250.82,370.38,251.93,365.64,252.77,360.86Z" transform="translate(-36.21 -137.87)"/><path class="cls-3" d="M344.73,430.07c0.44-6.19,4.08-10.51,8.47-14.33a18.87,18.87,0,0,1,4.5-2.74,5.32,5.32,0,0,1,7.07,2.71c1.22,2.54.38,5.17-2.48,6.5s-5.18,3-6.5,5.95C352,428,348.58,430.35,344.73,430.07Z" transform="translate(-36.21 -137.87)"/><path class="cls-6" d="M194.31,591.8c0.53,2.43-1.73,3.8-2.3,5.91-0.77,2.85-2.57,5.43-3.93,8.12-3.32-1.7-6.61-3.46-10-5.08a6.3,6.3,0,0,1-3.44-3.42l4-8a42.62,42.62,0,0,1,9,2.58C189.8,592.71,192.1,593.78,194.31,591.8Z" transform="translate(-36.21 -137.87)"/><path class="cls-7" d="M250.9,375.28c3.23,2.84,7.42,2.33,11.22,3.16a14.66,14.66,0,0,0,3.13,0l-1.47,10.72c-3.86.16-7.61-.66-11.38-1.26-1.31-.21-2.41-0.63-2.82-2A53.63,53.63,0,0,1,250.9,375.28Z" transform="translate(-36.21 -137.87)"/><path class="cls-7" d="M150.56,627c5.93,1.83,11.86,3.65,17.35,6.63-3.25,3.4-5.66,7.65-10,10-2.1-5.06-5.17-9.25-10.32-11.6Z" transform="translate(-36.21 -137.87)"/><path class="cls-7" d="M185.27,576c4.71-4.71,10-8.7,15.28-12.77,2.94-2.28,1.19,1.9,2.46,2.13l-4.73,15.85C194.72,577.56,189.92,577,185.27,576Z" transform="translate(-36.21 -137.87)"/><path class="cls-7" d="M218.58,448.33c-4.69-2.71-8.56-6.53-13-9.53l1.91-6.23c4.18,2.85,9.14,3.56,13.81,5.08Z" transform="translate(-36.21 -137.87)"/><path class="cls-5" d="M185.27,576c4.65,1,9.46,1.51,13,5.21,0.2,2-.94,3.4-2,4.83a2.7,2.7,0,0,1-3.32.71c-3.72-1.25-7.31-3-11.35-3.21l1.43-4.37C183.79,578.18,183.45,576.34,185.27,576Z" transform="translate(-36.21 -137.87)"/><path class="cls-7" d="M503.67,427c-0.54-4.49.82-8.83,1.08-13.26,0.2-3.31.65-6.61,1-9.91l2.5-1.56c1.44,3.9,4.44,6.84,6.45,10.38C509.18,416,506.7,421.72,503.67,427Z" transform="translate(-36.21 -137.87)"/><path class="cls-7" d="M402.16,210q0.19-11.39.37-22.79c0-1.15,0-2.29,0-3.44l2-1.5c1.44,3.58,2.95,7.1,6.9,8.68l0,1.93v0l-0.65.88c-3.45,4.57-6.36,9.43-7.75,15.07A4.25,4.25,0,0,1,402.16,210Z" transform="translate(-36.21 -137.87)"/><path class="cls-8" d="M174.68,597.33a6.3,6.3,0,0,0,3.44,3.42c3.36,1.62,6.65,3.38,10,5.08a22.23,22.23,0,0,1-3.32,6.09c-4.85-2.22-9.36-5.16-14.44-6.91Z" transform="translate(-36.21 -137.87)"/><path class="cls-7" d="M178.82,622.08c-4.26-1.1-7.79-3.71-11.68-5.6-1-.49-1.9-1.29-3.13-1.18,0.29-2.77,2.51-4.37,3.89-6.48,2.83,2.69,6.66,3.64,9.9,5.6a6,6,0,0,0,4.72.77C181.65,617.68,179.37,619.41,178.82,622.08Z" transform="translate(-36.21 -137.87)"/><path class="cls-7" d="M333.38,569.67c-2.13-.57-3-2.41-4.06-4-1.65-2.51-3.28-5-4.91-7.56,1.38-2,3.68-2.18,5.71-2.9a24.64,24.64,0,0,0,10.06,8.94A27.4,27.4,0,0,1,333.38,569.67Z" transform="translate(-36.21 -137.87)"/><path class="cls-6" d="M142.3,654.25c-3.07-3.39-6.3-6.66-8.44-10.77l4.85-3.31c1.32,0.24,2,1.28,2.87,2.15,2.64,2.56,4.32,6,7.49,8C147,651.9,145,653.77,142.3,654.25Z" transform="translate(-36.21 -137.87)"/><path class="cls-9" d="M181.57,583.59c4,0.17,7.63,2,11.35,3.21a2.7,2.7,0,0,0,3.32-.71,9.3,9.3,0,0,1-1.92,5.71c-2.21,2-4.51.91-6.72,0.08a42.62,42.62,0,0,0-9-2.58A24.4,24.4,0,0,1,181.57,583.59Z" transform="translate(-36.21 -137.87)"/><path class="cls-8" d="M422.1,187.56c-2.73-.06-4.75,2.25-7.48,2.22-0.05-1.32-.86-2.22-1.57-3.25-1.72-2.5-4.24-4.58-4.36-8,1.19-2,3.17-3.05,5.23-4a4.52,4.52,0,0,0,1.16,2.78C417.46,180.76,419.76,184.17,422.1,187.56Z" transform="translate(-36.21 -137.87)"/><path class="cls-7" d="M335.9,289.21c2.24,6,3.28,12.5,7.54,17.63l-2.51,3.63c-1.88-4.85-5.57-7.75-10.28-9.55C332.89,297.24,333.57,292.85,335.9,289.21Z" transform="translate(-36.21 -137.87)"/><path class="cls-7" d="M419.74,510c1.65,6.33,5.69,11.43,8.72,17.05a3.1,3.1,0,0,1-1.26,2.53c-3.64-2.43-6.93-5.49-11.43-6.35C417.09,518.78,418.93,514.52,419.74,510Z" transform="translate(-36.21 -137.87)"/><path class="cls-7" d="M284.61,246.31c-1.7-1.32-.82-3.06-0.7-4.64,0.5-6.86,1.05-13.72,1.59-20.58l1.23-1.36a5.83,5.83,0,0,0,2.19,5.16c1.48,1.27,2.81,2.71,4.2,4.08A45.38,45.38,0,0,0,284.61,246.31Z" transform="translate(-36.21 -137.87)"/><path class="cls-8" d="M149.07,650.35c-3.17-2.05-4.85-5.49-7.49-8-0.89-.86-1.55-1.91-2.87-2.15a18.56,18.56,0,0,1,5.14-4.33,36.05,36.05,0,0,1,9.51,11.28Z" transform="translate(-36.21 -137.87)"/><path class="cls-6" d="M298.76,209.91c0.45,3.36,3.09,5.36,5.07,7.66a8.68,8.68,0,0,1,2.48,6.75c-2.1.76-4.21-.16-6.31,0-0.7-5-4.43-7.73-7.77-10.8C293.43,210.58,296.58,211.12,298.76,209.91Z" transform="translate(-36.21 -137.87)"/><path class="cls-10" d="M153.36,647.12a36.05,36.05,0,0,0-9.51-11.28l3.76-3.79c5.14,2.35,8.22,6.54,10.32,11.6C156.85,645.38,154.78,645.83,153.36,647.12Z" transform="translate(-36.21 -137.87)"/><path class="cls-6" d="M422.1,187.56c-2.33-3.39-4.64-6.8-7-10.16a4.52,4.52,0,0,1-1.16-2.78,9.61,9.61,0,0,1,5-1.85,17.29,17.29,0,0,0,4.28,6.46c2.66,2.87,2.89,6,2.5,9.55Z" transform="translate(-36.21 -137.87)"/><path class="cls-7" d="M361.74,443.48c-3.72,1.65-7.64,3-9.84,6.82a13.55,13.55,0,0,1-5.37-7.54c2.91-2.06,6.9-1.44,9.64-3.92C357.27,441.3,360.13,441.64,361.74,443.48Z" transform="translate(-36.21 -137.87)"/><path class="cls-10" d="M182.52,615.19a6,6,0,0,1-4.72-.77c-3.24-2-7.06-2.91-9.9-5.6a10,10,0,0,1,2.43-3.81c5.08,1.75,9.58,4.69,14.44,6.91Z" transform="translate(-36.21 -137.87)"/><path class="cls-6" d="M517.15,397.06c1.59,4.14,4.58,7.42,6.86,11.13a5.64,5.64,0,0,1,1.24,3.74c-2.16.19-4-2.11-6.31-.77-0.71-1.61-1.53-3.16-2.39-4.71-1.37-2.45-3.55-4.39-4.43-7.13C513.67,398.28,515.2,397.2,517.15,397.06Z" transform="translate(-36.21 -137.87)"/><path class="cls-8" d="M209.06,427.45a19.16,19.16,0,0,1,2.7-6.44c0.37,1.79,1.84,2.23,3.27,2.91,2.87,1.35,6.31,1.06,8.88,3.18L222,433.92c0.06-1.56-.5-2.34-2.22-2.67A34,34,0,0,1,209.06,427.45Z" transform="translate(-36.21 -137.87)"/><path class="cls-7" d="M371.62,379.72c-0.11,3.89-.69,7.81,1.17,11.53,1,2,2.89,3.55,3.35,5.88l-1.85,2.72c-0.56-.11-0.58.29-0.62,0.66h0l-0.64.64h0a4.31,4.31,0,0,1-2.87-2.15,11.46,11.46,0,0,0-4.17-4.38C369,390.09,370.36,384.93,371.62,379.72Z" transform="translate(-36.21 -137.87)"/><path class="cls-10" d="M209.06,427.45a34,34,0,0,0,10.71,3.8c1.72,0.33,2.28,1.11,2.22,2.67-0.32,1.23.08,2.6-.72,3.73-4.67-1.52-9.63-2.24-13.81-5.08A12.16,12.16,0,0,1,209.06,427.45Z" transform="translate(-36.21 -137.87)"/><path class="cls-9" d="M420.15,540.09c-2.11-1.41-3.36-3.61-4.94-5.5-1.43-1.71-3.38-2.67-5.12-3.93l3.2-3c4.22,1.43,8,3.5,10.83,7.08C423.06,536.69,422.15,538.79,420.15,540.09Z" transform="translate(-36.21 -137.87)"/><path class="cls-6" d="M223.91,427.09c-2.58-2.12-6-1.82-8.88-3.18-1.43-.67-2.9-1.12-3.27-2.91a15.48,15.48,0,0,1,1.81-4.82c4,2.13,9,2.63,11.76,6.86C224.21,424.17,225,426,223.91,427.09Z" transform="translate(-36.21 -137.87)"/><path class="cls-5" d="M340.18,564.11a24.64,24.64,0,0,1-10.06-8.94l3.11-3.69c1.51,1.39,2.94,2.88,4.56,4.13,2,1.53,3.52,3.82,6.31,4.15C342.9,561.31,342.17,563.27,340.18,564.11Z" transform="translate(-36.21 -137.87)"/><path class="cls-7" d="M391.22,442.08A16.93,16.93,0,0,0,380,438.93c1.78-3,5.15-4.58,6.74-7.72a4.24,4.24,0,0,0,2.58,3c2,1,3.9,2,5.84,3C393.69,438.68,393.3,441.06,391.22,442.08Z" transform="translate(-36.21 -137.87)"/><path class="cls-9" d="M360.37,407.7c-0.06-2.16-1.61-3.58-2.65-5.24-0.89-1.43-1.93-2.77-1.63-4.6a12.49,12.49,0,0,0,6.19-.66c2.29,2.35,3,5.93,5.92,7.78C365.85,406.61,363.5,408.27,360.37,407.7Z" transform="translate(-36.21 -137.87)"/><path class="cls-6" d="M344.11,559.76c-2.79-.33-4.32-2.61-6.31-4.15-1.62-1.25-3-2.74-4.56-4.13l2.62-4.36c2.43,2.11,4.89,4.19,7.28,6.34,1,0.92,1.93,1.92,3.46,1.85C346.6,557.27,344.92,558.27,344.11,559.76Z" transform="translate(-36.21 -137.87)"/><path class="cls-10" d="M424.13,534.71c-2.81-3.59-6.61-5.65-10.83-7.08,0.22-1.5,1.22-2.6,2-3.82l0.5-.63h0c4.51,0.86,7.8,3.91,11.43,6.35A10.34,10.34,0,0,1,424.13,534.71Z" transform="translate(-36.21 -137.87)"/><path class="cls-5" d="M356.17,438.84c-2.73,2.48-6.73,1.86-9.64,3.92a11.45,11.45,0,0,1-2.13-7c1.32,0.64,2.6.16,3.91-.09,2.52-.47,4.85-1.7,7.46-1.8Z" transform="translate(-36.21 -137.87)"/><path class="cls-6" d="M355.78,433.85c-2.61.09-4.94,1.32-7.46,1.8-1.31.24-2.59,0.72-3.91,0.09l0.33-5.66c3.84,0.28,7.23-2.12,11.06-1.9Q355.78,431,355.78,433.85Z" transform="translate(-36.21 -137.87)"/><path class="cls-8" d="M512.12,399.32c0.89,2.74,3.07,4.68,4.43,7.13,0.86,1.55,1.68,3.1,2.39,4.71l-4.25,1.48c-2-3.55-5-6.48-6.45-10.38A5,5,0,0,1,512.12,399.32Z" transform="translate(-36.21 -137.87)"/><path class="cls-8" d="M292.22,213.53c3.34,3.06,7.06,5.84,7.77,10.8l-3.63,2.06c-0.35-1.77-1.83-2.7-2.9-3.95-1.67-2-3.68-3.73-3.65-6.62Z" transform="translate(-36.21 -137.87)"/><path class="cls-5" d="M395.18,437.19c-1.95-1-3.89-2-5.84-3a4.24,4.24,0,0,1-2.58-3,10.85,10.85,0,0,1,2.36-3.74c3,1.18,5.61,3.4,8.95,3.86C397.8,433.62,396.5,435.41,395.18,437.19Z" transform="translate(-36.21 -137.87)"/><path class="cls-10" d="M408.68,178.57c0.12,3.38,2.65,5.47,4.36,8,0.71,1,1.52,1.93,1.57,3.25l0-.06c-1.28-.17-2.21.59-3.19,1.21-4-1.58-5.46-5.1-6.9-8.68A19.31,19.31,0,0,1,408.68,178.57Z" transform="translate(-36.21 -137.87)"/><path class="cls-10" d="M289.81,215.83c0,2.89,2,4.67,3.65,6.62,1.07,1.25,2.55,2.18,2.9,3.95l-0.09-.19-0.66.66,0,0-0.66.55-1.85,1.6c-1.4-1.37-2.73-2.81-4.2-4.08a5.83,5.83,0,0,1-2.19-5.16A9.92,9.92,0,0,1,289.81,215.83Z" transform="translate(-36.21 -137.87)"/><path class="cls-9" d="M330.64,300.92c4.71,1.8,8.4,4.7,10.28,9.55a2.65,2.65,0,0,1-1.66,2,31.94,31.94,0,0,0-7-6.17c-1.4-.87-2.7-2-2.66-4Z" transform="translate(-36.21 -137.87)"/><path class="cls-10" d="M368.2,405c-3-1.85-3.63-5.43-5.92-7.78a10.15,10.15,0,0,0,3.71-2.55,11.46,11.46,0,0,1,4.17,4.38,4.31,4.31,0,0,0,2.87,2.15C371.76,402.87,370.39,404.44,368.2,405Z" transform="translate(-36.21 -137.87)"/><path class="cls-6" d="M398.06,431.33c-3.34-.47-5.92-2.68-8.95-3.86a12.38,12.38,0,0,1,2-4.34c3.24,0.61,5.6,3.28,8.88,3.79C400.29,428.79,398.93,430,398.06,431.33Z" transform="translate(-36.21 -137.87)"/><path class="cls-7" d="M300.85,367.44a76.58,76.58,0,0,1,1-14.22c1.77,1.07,3.74,1.91,4.54,4.07C304.18,360.49,303.19,364.33,300.85,367.44Z" transform="translate(-36.21 -137.87)"/><path class="cls-9" d="M305.64,345.71l6.31,6.94c-0.77,1.08-2.49.71-3.09,2.05a21.2,21.2,0,0,0-2.45-2.71c-1.3-1-2.74-1.87-2.68-3.82A4,4,0,0,1,305.64,345.71Z" transform="translate(-36.21 -137.87)"/><path class="cls-5" d="M303.73,348.18c-0.05,1.95,1.38,2.78,2.68,3.82a21.2,21.2,0,0,1,2.45,2.71l-2.51,2.58c-0.79-2.16-2.77-3-4.54-4.07q0-1.73,0-3.46Z" transform="translate(-36.21 -137.87)"/><path class="cls-8" d="M411.41,190.94c1-.63,1.91-1.39,3.19-1.21a9.79,9.79,0,0,1-3.17,3.15Z" transform="translate(-36.21 -137.87)"/><path class="cls-10" d="M373.66,400.52c0-.37.07-0.77,0.62-0.66Z" transform="translate(-36.21 -137.87)"/><path class="cls-10" d="M373,401.15l0.64-.64Z" transform="translate(-36.21 -137.87)"/><path class="cls-8" d="M410.77,193.7l0.65-.88Z" transform="translate(-36.21 -137.87)"/><path class="cls-7" d="M415.79,523.18l-0.5.63Z" transform="translate(-36.21 -137.87)"/><path class="cls-7" d="M208.71,531.38l0.1,2.4c-5.48,6-11.14,11.74-17.11,17.2-1.22-2.75.61-5.23,0.79-7.87a78.61,78.61,0,0,1,2.4-14.26C199.08,531.91,203.87,531.76,208.71,531.38Z" transform="translate(-36.21 -137.87)"/><path class="cls-7" d="M215.61,470.36l-0.74,1.83c-4.26-2.94-9.29-2.33-14-3.07,0.24-4.14,1.42-8.09,2.45-12.07C207.48,461.42,212.39,465.11,215.61,470.36Z" transform="translate(-36.21 -137.87)"/><path class="cls-8" d="M296.27,226.2a0.64,0.64,0,0,1-.66.66Z" transform="translate(-36.21 -137.87)"/><path class="cls-8" d="M295.64,226.81l-0.66.55Z" transform="translate(-36.21 -137.87)"/><path class="cls-2" d="M213.06,485.47c0,11.3-2.51,22.33-3.48,33.53l-1.45-.36c-0.44,2.76-2.58,2-4.3,2.07-1.24.06-2.73-.31-3.68,0.25-2,1.17-3.21.31-4.53-.91,1.49-3.28,1.28-7,1.49-10.33,0.37-5.67,1.15-11.33,1.37-17,0.12-3.25,1.22-6.47.58-9.8a34.75,34.75,0,0,1,8.81,1.51C209.56,484.91,211.33,485.13,213.06,485.47Z" transform="translate(-36.21 -137.87)"/><path class="cls-5" d="M195.62,520c1.32,1.22,2.55,2.09,4.53.91,0.94-.56,2.44-0.18,3.68-0.25,1.72-.09,3.86.69,4.3-2.07l1.45,0.36-0.87,12.38c-4.83.38-9.62,0.53-13.83-2.53C195.29,525.93,194.13,522.88,195.62,520Z" transform="translate(-36.21 -137.87)"/><path class="cls-8" d="M213.06,485.47c-1.73-.35-3.5-0.57-5.18-1.07a34.75,34.75,0,0,0-8.81-1.51c-1.44-3.09,1.17-5.39,1.56-8.12,3.66,0.45,7.32.84,11,1.37,1.1,0.16,2,.2,2.77-0.73l0.14,0.65C214.28,479.24,212.59,482.19,213.06,485.47Z" transform="translate(-36.21 -137.87)"/><path class="cls-10" d="M214.36,475.4c-0.74.93-1.67,0.89-2.77,0.73-3.65-.52-7.31-0.92-11-1.37l0.22-5.65c4.74,0.75,9.78.13,14,3.07q0,0.71,0,1.41Z" transform="translate(-36.21 -137.87)"/><path class="cls-7" d="M214.36,475.4l0.48-1.8a2.94,2.94,0,0,1-.34,2.45Z" transform="translate(-36.21 -137.87)"/></svg>